solid hullWall1
  facet normal -1.000000 0.000000 0.000000
    outer loop
      vertex 0.000000 -0.075000 -0.050000
      vertex 0.000000 -0.075000 0.050000
      vertex 0.000000 0.075000 -0.050000
    endloop
  endfacet
  facet normal -1.000000 0.000000 0.000000
    outer loop
      vertex 0.000000 0.075000 -0.050000
      vertex 0.000000 -0.075000 0.050000
      vertex 0.000000 0.075000 0.050000
    endloop
  endfacet
  facet normal 1.000000 0.000000 0.000000
    outer loop
      vertex 1.000000 -0.075000 0.050000
      vertex 1.000000 -0.075000 -0.050000
      vertex 1.000000 0.075000 -0.050000
    endloop
  endfacet
  facet normal 1.000000 -0.000000 0.000000
    outer loop
      vertex 1.000000 -0.075000 0.050000
      vertex 1.000000 0.075000 -0.050000
      vertex 1.000000 0.075000 0.050000
    endloop
  endfacet
  facet normal 0.000000 -1.000000 0.000000
    outer loop
      vertex 1.000000 -0.075000 -0.050000
      vertex 1.000000 -0.075000 0.050000
      vertex 0.000000 -0.075000 -0.050000
    endloop
  endfacet
  facet normal 0.000000 -1.000000 0.000000
    outer loop
      vertex 0.000000 -0.075000 -0.050000
      vertex 1.000000 -0.075000 0.050000
      vertex 0.000000 -0.075000 0.050000
    endloop
  endfacet
  facet normal 0.000000 1.000000 0.000000
    outer loop
      vertex 1.000000 0.075000 0.050000
      vertex 1.000000 0.075000 -0.050000
      vertex 0.000000 0.075000 -0.050000
    endloop
  endfacet
  facet normal 0.000000 1.000000 0.000000
    outer loop
      vertex 1.000000 0.075000 0.050000
      vertex 0.000000 0.075000 -0.050000
      vertex 0.000000 0.075000 0.050000
    endloop
  endfacet
  facet normal 0.000000 0.000000 -1.000000
    outer loop
      vertex 0.000000 0.075000 -0.050000
      vertex 1.000000 0.075000 -0.050000
      vertex 0.000000 -0.075000 -0.050000
    endloop
  endfacet
  facet normal 0.000000 0.000000 -1.000000
    outer loop
      vertex 0.000000 -0.075000 -0.050000
      vertex 1.000000 0.075000 -0.050000
      vertex 1.000000 -0.075000 -0.050000
    endloop
  endfacet
  facet normal 0.000000 0.000000 1.000000
    outer loop
      vertex 1.000000 0.075000 0.050000
      vertex 0.000000 0.075000 0.050000
      vertex 0.000000 -0.075000 0.050000
    endloop
  endfacet
  facet normal 0.000000 0.000000 1.000000
    outer loop
      vertex 1.000000 0.075000 0.050000
      vertex 0.000000 -0.075000 0.050000
      vertex 1.000000 -0.075000 0.050000
    endloop
  endfacet
endsolid hullWall1
